<?xml version="1.0" encoding="iso-8859-1"?>
<!-- Generator: Adobe Illustrator 16.0.0, SVG Export Plug-In . SVG Version: 6.00 Build 0)  -->
<!DOCTYPE svg PUBLIC "-//W3C//DTD SVG 1.1//EN" "http://www.w3.org/Graphics/SVG/1.1/DTD/svg11.dtd">
<svg xmlns="http://www.w3.org/2000/svg" xmlns:xlink="http://www.w3.org/1999/xlink" version="1.1" id="Capa_1" x="0px" y="0px" width="512px" height="512px" viewBox="0 0 469.131 469.13" style="enable-background:new 0 0 469.131 469.13;" xml:space="preserve">
<g>
	<path d="M288.631,0.431c-40.434,0-77.085,18.228-97.61,48.054c-43.814-1.243-84.407,19.594-104.556,52.927   C36.008,112.247,0,151.943,0,197.769c0,54.729,51.085,99.254,113.877,99.254h169.551l-44.146,63.881   c-2.641,3.823-2.944,8.797-0.786,12.913c2.157,4.116,6.422,6.694,11.069,6.694h49.258l-56.403,67.687   c-4.343,5.212-3.735,12.938,1.369,17.406c2.368,2.074,5.305,3.096,8.229,3.096c3.379,0,6.743-1.361,9.205-4.038l88.363-96.068   c3.357-3.651,4.238-8.943,2.244-13.486c-1.992-4.543-6.484-7.477-11.445-7.477h-54.775l27.068-49.071   c0.275-0.501,0.5-1.017,0.703-1.537h41.873c62.791,0,113.877-44.524,113.877-99.254c0-39.347-26.49-74.579-66.957-90.479   c0.223-2.532,0.334-5.071,0.334-7.604C402.508,44.956,351.424,0.431,288.631,0.431z M444.131,197.769   c0,40.943-39.869,74.254-88.877,74.254H113.878c-49.007,0-88.877-33.311-88.877-74.254c0-35.34,30.094-65.972,71.557-72.835   c3.891-0.644,7.249-3.086,9.061-6.588c14.116-27.285,46.16-44.915,81.636-44.915c3.103,0,6.236,0.136,9.313,0.404   c4.849,0.423,9.491-2.002,11.917-6.214c14.762-25.629,46.222-42.19,80.148-42.19c49.006,0,88.877,33.31,88.877,74.254   c0,4.474-0.488,8.973-1.449,13.373c-1.398,6.406,2.389,12.805,8.68,14.658C420.264,138.183,444.131,166.335,444.131,197.769z    M139.191,391.297l19.992-23.991h-11.628c-4.647,0-8.911-2.578-11.07-6.694s-1.856-9.089,0.787-12.913l26.319-38.084   c3.786-5.479,11.203-7.027,16.863-3.521c5.662,3.507,7.582,10.834,4.365,16.666l-8.589,15.572h17.145   c4.961,0,9.452,2.934,11.446,7.477c1.994,4.542,1.112,9.834-2.246,13.484l-44.581,48.47c-2.461,2.676-5.826,4.038-9.204,4.038   c-2.926,0-5.862-1.021-8.23-3.097C135.456,404.234,134.848,396.509,139.191,391.297z" fill="#FFFFFF"/>
</g>
<g>
</g>
<g>
</g>
<g>
</g>
<g>
</g>
<g>
</g>
<g>
</g>
<g>
</g>
<g>
</g>
<g>
</g>
<g>
</g>
<g>
</g>
<g>
</g>
<g>
</g>
<g>
</g>
<g>
</g>
</svg>
